<?xml version="1.0" standalone="no"?>
<!DOCTYPE svg PUBLIC "-//W3C//DTD SVG 20010904//EN"
 "http://www.w3.org/TR/2001/REC-SVG-20010904/DTD/svg10.dtd">
<svg version="1.0" xmlns="http://www.w3.org/2000/svg"
 width="96.000000pt" height="96.000000pt" viewBox="0 0 96.000000 96.000000"
 preserveAspectRatio="xMidYMid meet">

<g transform="translate(0.000000,96.000000) scale(0.100000,-0.100000)"
fill="#000000" stroke="none">
<path d="M225 851 c-11 -5 -33 -23 -50 -41 -26 -27 -30 -38 -30 -90 0 -56 3
-62 38 -97 35 -35 41 -38 97 -38 56 0 62 3 97 38 35 35 38 41 38 97 0 55 -3
62 -37 96 -30 30 -45 37 -85 40 -26 2 -57 0 -68 -5z m85 -106 c26 -32 -13 -81
-47 -59 -35 22 -23 74 17 74 10 0 23 -7 30 -15z"/>
<path d="M264 729 c-10 -17 13 -36 27 -22 12 12 4 33 -11 33 -5 0 -12 -5 -16
-11z"/>
<path d="M80 160 c0 -33 -4 -60 -10 -60 -5 0 -10 -9 -10 -20 0 -18 7 -20 60
-20 53 0 60 2 60 20 0 11 -4 20 -10 20 -6 0 -10 27 -10 60 l0 60 -40 0 -40 0
0 -60z"/>
<path d="M640 160 c0 -33 -4 -60 -10 -60 -5 0 -10 -9 -10 -20 0 -18 7 -20 60
-20 53 0 60 2 60 20 0 11 -4 20 -10 20 -6 0 -10 27 -10 60 l0 60 -40 0 -40 0
0 -60z"/>
</g>
</svg>
